<svg width="219" height="273" viewBox="0 0 219 273" fill="none" xmlns="http://www.w3.org/2000/svg">
<path d="M153.09 83.3806C152.215 73.8563 148.32 66.4534 141.405 61.1718C134.577 55.8035 124.818 53.1194 112.126 53.1194C103.723 53.1194 96.7206 54.2017 91.1187 56.3663C85.5168 58.5309 81.3153 61.5181 78.5144 65.3278C75.7134 69.0509 74.2692 73.3368 74.1817 78.1855C74.0066 82.1684 74.7944 85.6751 76.545 88.7055C78.3831 91.736 81.009 94.4201 84.4227 96.7579C87.9239 99.009 92.1253 101 97.027 102.732C101.929 104.464 107.443 105.979 113.57 107.278L136.678 112.473C149.983 115.33 161.712 119.14 171.865 123.902C182.106 128.664 190.684 134.335 197.599 140.916C204.601 147.496 209.897 155.072 213.486 163.644C217.074 172.216 218.912 181.827 219 192.477C218.912 209.274 214.623 223.69 206.133 235.725C197.643 247.761 185.432 256.982 169.502 263.389C153.659 269.796 134.534 273 112.126 273C89.6307 273 70.024 269.667 53.3057 263C36.5875 256.333 23.5893 246.202 14.3112 232.608C5.03297 219.015 0.26259 201.828 0 181.048H62.2338C62.759 189.619 65.0785 196.763 69.1924 202.477C73.3063 208.192 78.952 212.521 86.1295 215.465C93.3945 218.409 101.797 219.881 111.338 219.881C120.091 219.881 127.531 218.712 133.658 216.374C139.873 214.036 144.643 210.789 147.969 206.633C151.296 202.477 153.002 197.715 153.09 192.347C153.002 187.325 151.427 183.039 148.363 179.489C145.3 175.853 140.573 172.735 134.183 170.138C127.881 167.454 119.829 164.986 110.025 162.735L81.928 156.241C58.6451 150.96 40.3076 142.431 26.9155 130.656C13.5234 118.794 6.8711 102.775 6.95863 82.6014C6.8711 66.1503 11.3351 51.7341 20.3507 39.3525C29.3663 26.971 41.8393 17.3169 57.7698 10.3901C73.7002 3.46338 91.8627 0 112.257 0C133.089 0 151.164 3.50666 166.482 10.52C181.887 17.4467 193.835 27.1874 202.326 39.7422C210.816 52.2969 215.149 66.843 215.324 83.3806H153.09Z" fill="#FF9D00"/>
</svg>
